HIERARCHY
ROOT Hips
{
 OFFSET 0.000000 0.000000 0.000000
 CHANNELS 6 Xposition Yposition Zposition Yrotation Xrotation Zrotation
 JOINT Chest
 {
  OFFSET 0.000000 9.581000 -0.001100
  CHANNELS 3 Yrotation Xrotation Zrotation
  JOINT Chest2
  {
   OFFSET 0.000000 9.561100 0.002200
   CHANNELS 3 Yrotation Xrotation Zrotation
   JOINT Chest3
   {
    OFFSET 0.000000 9.521100 0.000000
    CHANNELS 3 Yrotation Xrotation Zrotation
    JOINT Chest4
    {
     OFFSET 0.000000 9.511400 0.000000
     CHANNELS 3 Yrotation Xrotation Zrotation
     JOINT Neck
     {
      OFFSET 0.000000 14.375100 0.000000
      CHANNELS 3 Yrotation Xrotation Zrotation
      JOINT Head
      {
       OFFSET 0.000000 8.901200 0.004600
       CHANNELS 3 Yrotation Xrotation Zrotation
       End Site
       {
        OFFSET 0.000000 16.962200 0.002400
       }
      }
     }
     JOINT RightCollar
     {
      OFFSET -2.920100 9.518800 0.000000
      CHANNELS 3 Yrotation Xrotation Zrotation
      JOINT RightShoulder
      {
       OFFSET -13.664500 0.000000 0.000000
       CHANNELS 3 Yrotation Xrotation Zrotation
       JOINT RightElbow
       {
        OFFSET 0.000000 -29.999200 0.000000
        CHANNELS 3 Yrotation Xrotation Zrotation
        JOINT RightWrist
        {
         OFFSET 0.000000 -24.253600 0.000000
         CHANNELS 3 Yrotation Xrotation Zrotation
         End Site
         {
          OFFSET 0.000000 -17.918900 0.000000
         }
        }
       }
      }
     }
     JOINT LeftCollar
     {
      OFFSET 2.920100 9.518800 0.000000
      CHANNELS 3 Yrotation Xrotation Zrotation
      JOINT LeftShoulder
      {
       OFFSET 13.664500 0.000000 0.000000
       CHANNELS 3 Yrotation Xrotation Zrotation
       JOINT LeftElbow
       {
        OFFSET 0.000000 -29.999200 0.000000
        CHANNELS 3 Yrotation Xrotation Zrotation
        JOINT LeftWrist
        {
         OFFSET 0.000000 -24.253600 0.000000
         CHANNELS 3 Yrotation Xrotation Zrotation
         End Site
         {
          OFFSET 0.000000 -17.918900 0.000000
         }
        }
       }
      }
     }
    }
   }
  }
 }
 JOINT RightHip
 {
  OFFSET -7.797300 0.005300 0.000500
  CHANNELS 3 Yrotation Xrotation Zrotation
  JOINT RightKnee
  {
   OFFSET 0.000000 -40.663400 -0.000500
   CHANNELS 3 Yrotation Xrotation Zrotation
   JOINT RightAnkle
   {
    OFFSET 0.000000 -39.523700 -0.000900
    CHANNELS 3 Yrotation Xrotation Zrotation
    JOINT RightToe
    {
     OFFSET 0.000000 -6.418000 14.485300
     CHANNELS 3 Yrotation Xrotation Zrotation
     End Site
     {
      OFFSET 0.000000 -1.465200 6.326400
     }
    }
   }
  }
 }
 JOINT LeftHip
 {
  OFFSET 7.797300 0.005300 0.000500
  CHANNELS 3 Yrotation Xrotation Zrotation
  JOINT LeftKnee
  {
   OFFSET 0.000000 -40.663400 -0.000500
   CHANNELS 3 Yrotation Xrotation Zrotation
   JOINT LeftAnkle
   {
    OFFSET 0.000000 -39.523700 -0.000900
    CHANNELS 3 Yrotation Xrotation Zrotation
    JOINT LeftToe
    {
     OFFSET 0.000000 -6.418000 14.485300
     CHANNELS 3 Yrotation Xrotation Zrotation
     End Site
     {
      OFFSET 0.000000 -1.465200 6.326400
     }
    }
   }
  }
 }
}
MOTION
Frames: 8
Frame Time: 0.008333
0.000000 86.422400 0.000000 0.000000 -5.767877 0.000000 0.000000 11.653817 0.000000 0.000000 -5.885947 0.000000 0.000000 -0.000000 0.000000 0.000000 -0.000000 0.000000 0.000000 12.528835 0.000000 0.000000 0.711642 0.000000 0.000000 -0.000000 0.000000 0.000000 0.000000 -90.000000 0.000000 -2.309062 0.000000 0.000000 2.309062 0.000000 0.000000 -0.000000 0.000000 0.000000 -0.000000 90.000000 0.000000 -2.309062 0.000000 0.000000 2.309062 0.000000 0.000000 8.520406 0.000000 0.000000 1.905762 0.000000 -0.000000 -4.658285 0.000000 0.000000 -0.000000 0.000000 0.000000 8.520406 0.000000 0.000000 1.905762 0.000000 -0.000000 -4.658285 0.000000 0.000000 -0.000000 0.000000
-18.371559 126.893720 19.513041 -172.769273 -47.584676 -4.888663 0.824184 25.560116 1.381819 0.101138 4.171795 0.183067 0.151335 6.620694 0.310803 0.630626 21.107013 1.093857 0.150327 15.180911 -5.760899 1.441315 -9.693224 -6.118392 -0.367731 1.646699 2.325450 -0.158691 -12.313316 -9.549476 -75.540216 -38.385882 132.932883 -14.082091 -2.362928 -6.278725 -5.891825 -0.851092 4.871815 5.113636 -14.619135 0.107234 68.056933 -36.566507 -102.872613 15.070649 -31.203035 3.680930 -20.228239 -16.302077 0.271814 -6.451083 67.439666 7.947949 12.999439 -9.955285 -4.752444 0.003104 -0.005509 0.001375 14.814532 -6.715356 1.052427 -175.933780 84.882501 179.016742 -12.303939 -14.141766 4.629110 0.001285 -0.001208 0.000569
-18.372249 126.893186 19.512590 -172.759167 -47.571909 -4.903043 0.839703 25.575870 1.384138 0.100997 4.188512 0.183108 0.153936 6.629467 0.311777 0.633482 21.074604 1.103635 0.150223 15.174893 -5.770264 1.469335 -9.694063 -6.175351 -0.355754 1.641682 2.351021 -0.134769 -12.366409 -9.577975 -75.540267 -38.365305 132.891422 -14.098461 -2.395171 -6.375862 -5.929533 -0.833238 4.872153 5.104532 -14.626732 0.080031 68.070266 -36.522670 -102.881298 15.112143 -31.351771 3.898775 -20.218435 -16.316683 0.277771 -6.445351 67.449183 7.959513 13.012609 -9.946536 -4.746996 0.005675 -0.003202 0.002514 14.819321 -6.722226 1.056317 -175.905323 84.883942 179.051021 -12.299830 -14.154884 4.610534 0.001173 -0.000784 0.000520
-18.374335 126.893589 19.511300 -172.756095 -47.567159 -4.905739 0.849600 25.605457 1.379923 0.097229 4.192827 0.184267 0.153403 6.614228 0.316163 0.642852 21.109123 1.100922 0.151141 15.133796 -5.776896 1.521003 -9.703713 -6.272843 -0.349723 1.609487 2.378032 -0.103735 -12.428663 -9.597382 -75.548605 -38.348153 132.853823 -14.129857 -2.501037 -6.484692 -5.969440 -0.849562 4.871898 5.080250 -14.637869 0.061373 68.096709 -36.478972 -102.886756 15.159469 -31.501138 4.106452 -20.202056 -16.322236 0.281938 -6.451220 67.453166 7.962984 12.976304 -9.960316 -4.749514 0.002323 -0.004147 0.001029 14.828406 -6.721072 1.054054 -175.902571 84.887072 179.061005 -12.301726 -14.157012 4.597794 0.001951 -0.001074 0.000864
-18.375178 126.892950 19.511038 -172.738983 -47.552674 -4.926065 0.849809 25.622819 1.382232 0.091398 4.191399 0.188874 0.155624 6.607837 0.316789 0.642571 21.144503 1.096774 0.164273 15.129898 -5.823408 1.528853 -9.764270 -6.275495 -0.322253 1.627438 2.424006 -0.073537 -12.558222 -9.605921 -75.557950 -38.332638 132.799450 -14.128021 -2.502052 -6.521137 -5.984445 -0.886057 4.877170 5.021861 -14.631977 0.040380 68.132802 -36.432055 -102.890750 15.211432 -31.650590 4.314163 -20.199618 -16.333865 0.294063 -6.449333 67.453999 7.975575 12.959725 -9.959873 -4.753461 0.003167 -0.004051 0.001403 14.824220 -6.735790 1.062096 -175.821033 84.884703 179.143255 -12.308337 -14.154303 4.591566 0.000890 -0.000508 0.000394
-18.375889 126.891361 19.511804 -172.717954 -47.530907 -4.949483 0.838545 25.635732 1.384410 0.091421 4.168066 0.194081 0.152645 6.649135 0.313280 0.637849 21.158407 1.098096 0.173465 15.082659 -5.843807 1.532608 -9.785470 -6.270816 -0.300982 1.607077 2.440605 -0.078851 -12.623167 -9.596256 -75.577935 -38.290856 132.812511 -14.152719 -2.560613 -6.557388 -6.016067 -0.894694 4.853482 4.972520 -14.662657 0.045273 68.172775 -36.373827 -102.896410 15.261565 -31.795798 4.535414 -20.203726 -16.351865 0.314376 -6.457201 67.457803 7.975992 12.922245 -9.977250 -4.760748 0.000564 -0.006427 0.000250 14.813438 -6.762347 1.065881 -175.719308 84.878420 179.249962 -12.319088 -14.146612 4.582856 0.000428 0.000677 0.000189
-18.376369 126.891099 19.511560 -172.709693 -47.521612 -4.965581 0.834859 25.659089 1.392622 0.089950 4.175070 0.194712 0.150506 6.659663 0.314326 0.610268 21.231556 1.103365 0.197980 14.969736 -5.881342 1.552802 -9.825152 -6.304141 -0.257950 1.534664 2.439149 -0.095694 -12.688126 -9.575953 -75.597094 -38.256255 132.839717 -14.184154 -2.633636 -6.583713 -6.028726 -0.960233 4.814461 4.919541 -14.698875 0.064504 68.207977 -36.301689 -102.902361 15.314050 -31.934717 4.767446 -20.201201 -16.360403 0.326679 -6.442244 67.460911 7.993052 12.929777 -9.968107 -4.764455 0.005050 -0.004567 0.002237 14.809532 -6.776753 1.074594 -175.695023 84.876350 179.278600 -12.332686 -14.137435 4.575639 -0.000036 0.000227 -0.000016
-18.375962 126.890981 19.511366 -172.700032 -47.514220 -4.987774 0.825307 25.682651 1.401704 0.082579 4.204868 0.194300 0.149000 6.667702 0.316491 0.607822 21.219171 1.106516 0.206929 14.915660 -5.911693 1.586396 -9.912946 -6.379549 -0.229415 1.535729 2.443302 -0.120298 -12.755398 -9.546076 -75.627569 -38.226143 132.884697 -14.206241 -2.685245 -6.616983 -6.028453 -0.992796 4.793366 4.865029 -14.709103 0.074434 68.207071 -36.216733 -102.908021 15.373350 -32.071811 5.003739 -20.207798 -16.363772 0.341410 -6.441818 67.461586 7.994501 12.956644 -9.951879 -4.772432 0.009711 -0.002221 0.004302 14.804489 -6.791447 1.085958 -175.628275 84.875034 179.357030 -12.336954 -14.130816 4.556409 0.001000 -0.000085 0.000443
